# xmcd
#
# Track frame offsets:
#	150
#	16376
#	32918
#	48756
#	65510
#	85278
#	106704
#	122671
#	139294
#	156475
#	169625
#	185039
#	198514
#	213192
#	228352
#	241456
#	252793
#	267644
#
# Disc length: 3837 seconds
#
# Revision: 0
# Processed by: cddbd v1.5.2PL0 Copyright (c) Steve Scherf et al.
# Submitted via: EZCDAudioConverter 2.5.0.1
#
DISCID=000efb12
DTITLE=Kari Vepsä - Nyt on tanssin aika
DYEAR=1900
DGENRE=
TTITLE0=Nyt on tanssin aika
TTITLE1=Tanssin yötä pois
TTITLE2=Rakkauden satu
TTITLE3=Aina muistan sen illan
TTITLE4=Kuinka rakkaus alkoi
TTITLE5=Poika varjoisalta kujalta
TTITLE6=Play planca
TTITLE7=Kumarra tanssi ja kiitä
TTITLE8=Kylmät huulet
TTITLE9=Kuunsilta
TTITLE10=Lanteet keinuen
TTITLE11=Tää kesä tuoda sut voi
TTITLE12=Kielot
TTITLE13=Meidän onni
TTITLE14=Kuumaa laavaa
TTITLE15=Anna mun rakastaa
TTITLE16=Vihreät niityt
TTITLE17=Kaksi nauhaa
EXTD=
EXTT0=
EXTT1=
EXTT2=
EXTT3=
EXTT4=
EXTT5=
EXTT6=
EXTT7=
EXTT8=
EXTT9=
EXTT10=
EXTT11=
EXTT12=
EXTT13=
EXTT14=
EXTT15=
EXTT16=
EXTT17=
PLAYORDER=
